<svg fill="none" height="48" viewBox="0 0 78 48" width="78" xmlns="http://www.w3.org/2000/svg" xmlns:xlink="http://www.w3.org/1999/xlink"><clipPath id="a"><path d="m0 0h78v48h-78z"/></clipPath><g clip-path="url(#a)"><path d="m72.6589 15.1998c-.2972-.2178-.6482-.4781-.8067-.6338.0849-.1471.2349-.3734.3708-.563.7841-1.1375 2.2587-3.2907 2.2587-6.36064 0-1.76275-.6453-3.67829-2.1993-5.14961-1.5539-1.47132-4.008-2.49275-7.6112-2.49275-3.4164 0-7.2659 1.12329-10.5918 3.08694-1.4916.88562-2.7201 1.83632-3.5805 2.75306-.8577.91392-1.353 1.79105-1.3559 2.54368 0 .365.1387.70171.4048.96485.2095.20655.4925.365.8322.48949.3566-2.31166 9.134-7.33961 15.5621-6.60395 2.8758.33105 5.0128 2.47012 4.7156 5.42973-.283 2.8351-3.1701 4.3743-5.6553 5.1157-1.387.4131-2.7796.8148-4.1099 1.3921-.651.2829-1.3134.6055-1.8851 1.0299-.4161.3112-.9568.7158-.9285 1.2987.9822.6677 2.5447 1.0554 3.558 1.129.8237.0594 1.0529.0735 1.9785.1018 1.8993.0566 3.892.1217 5.6639.88 2.488 1.0667 3.9514 3.6358 3.4164 6.3266-.6878 3.4576-4.1778 5.5486-7.4159 6.1484-3.4646.6423-7.8094.1387-10.0993-2.8492-.9341-1.2195-1.5228-2.8578-1.2681-4.4027.2831-1.7146 1.4889-3.3557 3.2268-3.7943 1.0954-.2772 2.2503-.0198 3.1192.6254-.2151-.3085-.467-.5886-.7529-.8347-1.0076-.8743-2.4229-1.3638-4.0646-1.3638-2.0266 0-3.6513.8403-4.7637 2.0881s-1.7181 2.8974-1.721 4.5215c0 2.5578 1.1804 5.127 3.4816 7.0538 2.3012 1.9269 5.7204 3.2086 10.1983 3.2086 3.5494 0 7.13-1.1714 9.8388-3.2058 2.2446-1.6891 4.9279-4.7704 4.9251-9.8238 0-4.6234-3.1051-6.9096-4.7411-8.1121m-11.7693 10.0106c-.0169-.481-.0368-.6564-.0368-.6564-.0254-.2065-.0651-.4131-.1245-.614-.5152-1.7401-2.5927-2.5041-4.0957-1.4374-1.2455.8828-1.7351 2.5805-1.2823 4.0122 1.1464 3.633 5.3497 4.3885 8.6642 3.8877 1.6304-.2462 3.2353-.8347 4.5345-1.8731 1.2539-1.0045 2.2106-2.5578 1.8993-4.1819-.2067-2.4362-2.055-3.65-5.0695-4.0009.1416.2943.6086 2.4277-.9114 3.8085-.9284.8431-1.9191 1.0638-3.2494 1.0667-.051 0-.3284-.0114-.3284-.0114zm-54.82972-2.3541c.19248.1472.40477.3056.60573.4358.40194.2659.80387.498 1.2341.7186.42741.2236.86331.4301 1.31053.6027 0 0 .62837.2603 1.36426.4471.736.1867 1.4011.2688 1.4011.2688.4727.0622.9454.0792 1.4181.0707 0 0 .7812-.0226 1.4125-.1386 1.5256-.2519 3.0795-1.3921 3.4786-1.6779l.6369-.4527c.2321-.1613.4699-.3141.7218-.4527.4982-.2801 1.036-.5178 1.6105-.6706.5746-.15 1.1153-.2066 1.721-.1415.0764.0057.5378.051 1.1096.2688 0 0 .4019.1528.6227.2943.2604.1669.5066.3452.7274.5347 1.0841.9168 4.2571 4.7422 5.1713 5.5628 1.0813.9676 2.4371 1.9495 3.5382 2.2409 2.1229.5631 3.7985.0509 5.7063-1.1544 2.1059-1.3299 3.8127-3.3161 5.2619-5.3137 1.5313-2.1052 2.9098-4.4027 3.8099-6.853.4444-1.211.8038-2.5437.5632-3.8396-.0226-.133-.0594-.2603-.1047-.3791-.3029.6451-.6284 1.2789-.9737 1.9042-.5576.9988-1.169 1.975-1.854 2.9087s-1.4379 1.8278-2.2983 2.6455c-.8605.8149-1.8285 1.5562-2.9608 2.0995-.3085.1443-.6283.2744-.9595.3848-.3312.1075-.6737.1952-1.0218.2575-.702.1216-1.4351.133-2.1512.0141-.7161-.1132-1.4039-.3593-2.0323-.6762-.6255-.3254-1.2001-.7215-1.7153-1.1629 0 0-.3198-.2801-.3765-.3367l-.3396-.3226c-.2264-.215-.4501-.4301-.6737-.6479-.4444-.4358-1.2369-1.3214-1.2369-1.3214s-1.3728-1.6043-2.505-2.8181c0 0-1.0586-1.1488-1.636-1.6383-1.9757-1.675-4.3873-1.3072-6.5272-.1443-1.9785 1.0752-3.7419 3.1407-6.1139 3.2878-1.8455.1132-3.5325-.58-4.88827-1.8051-1.80303-1.6298-3.53247-3.3247-4.98169-5.3081-.64253-.87997-2.08325-2.19001-3.532474-1.06106-1.44922 1.12896-.090576 4.90916 2.015324 8.86756 0 0 1.89078 3.3076 3.43906 4.5073m52.90505-7.9253c1.0303-.6848 2.1823-1.2195 3.3117-1.7147 2.1625-.9478 5.4628-1.4175 6.2667-3.88199.852-2.62008-1.5341-4.32341-3.9486-4.40546-6.5384-.2207-13.0061 3.9386-13.3288 5.12985.2293.0424.4727.0735.7331.1018 1.0982.116 2.4399.1188 3.8835.1188h.2575c2.2248 0 3.7957.0595 4.8006.2066.5038.0736.8633.1698 1.0869.2829.2264.1161.3.2292.3.3566 0 .0877-.0566.1697-.1953.3055-.4812.481-1.7408 1.1969-2.8758 1.9807-.5689.3933-1.1067.8064-1.5086 1.2279-.3991.4216-.6709.8517-.6737 1.2988v.0198c.0028.3084.0934.5828.2491.8262-.0227-.2037.2434-.5461.3566-.6989.3397-.4669.8096-.8347 1.2851-1.1516m-24.1528 5.0619c.4048.365.8379.6791 1.2879.9366.4529.249.9284.4385 1.4181.5376.4897.1018.9964.1188 1.5058.0565.2548-.0339.5095-.082.7643-.1499.2547-.0708.5066-.1585.7586-.2603.9255-.382 1.8087-.9649 2.6295-1.6439.8209-.6791 1.5851-1.46 2.3012-2.2862.7161-.8291 1.3841-1.7119 2.0097-2.6258.467-.6847.9142-1.3892 1.3331-2.1079-.334-.2603-.7699-.3905-1.2624-.3594-1.1718.0764-2.1766.8489-2.9975 1.627-.8746.829-1.6502 1.7486-2.5673 2.5323-.9142.7838-1.8737 1.5251-2.904 2.1476-1.3615.8177-2.8957 1.4034-4.4468 1.4374.0057.0084.1727.1612.1727.1612m-11.8825 3.2115c-.4274-.0227-.8605.0339-1.285.1669-.4246.1358-.8407.3395-1.2341.5885-.1982.1245-.3907.2603-.5803.4046 0 0-1.5143 1.1233-1.9955 1.4091-.968.5546-1.5596.979-2.6635 1.2337-.9397.215-1.6813.249-1.6813.249-.5661.0367-1.4549.065-2.539-.0962-1.46054-.2151-2.45405-.5971-2.45405-.5971-.45288-.1528-.89727-.331-1.33317-.5262.82368 1.1968 1.72944 2.3993 2.85312 3.2708.9483.7385 2.0974 1.2337 3.3032 1.3299 1.9871.1584 3.3683-.7923 4.8402-2.0542 1.053-.9026 1.9531-1.992 2.8616-3.036.6341-.7272 1.2766-1.6836 2.072-2.3259-.0538-.0056-.1048-.0141-.1614-.0169m-3.0286-15.89026c.2179.24333.5604.35934.9567.4329.1981.03396.4076.05659.6227.06508.1047.00566.2236.01132.3199.00566h.15l.15-.01698c.4019-.03112.8095-.13581 1.2086-.27445.3963-.14714.7869-.33388 1.1351-.56307.5632-.37348.75-.64794.8519-.7979.0963-.15279.1642-.30841.1925-.45838.0283-.15279.0113-.30841-.0679-.481-.0708-.14714-.1812-.30276-.4019-.49516-.6143-.54325-1.6219-.58853-2.2163-.52062-1.3785.15845-2.539.96202-2.9692 1.825-.1076.23202-.1642.51213-.1416.74981.0227.22352.1019.40178.2123.52628m3.6684 3.66129c2.1172-.2405 3.6598-1.94947 3.4475-3.81691-.0566-.49799-.2349-.95353-.501-1.35531.0283.29143-.017.58004-.0962.83752-.0963.31407-.2519.59418-.4331.84883-.1811.25182-.3849.46969-.6085.66775-.4416.3933-.9454.69322-1.4889.90826-.5434.20938-1.1294.34237-1.7351.33954 0 0-.2179.00566-.4246-.01981-.2009-.02264-.4302-.06791-.4613-.07639-.2831-.06225-.5661-.14431-.8464-.27163-.1387-.06508-.4727-.21787-.7982-.52062-.0877-.08206-.167-.17543-.2434-.27446.3255 1.75423 2.1512 2.96243 4.1863 2.73043" fill="#ff6900"/><g fill="#49b170"><path d="m2.02924 39.3254v7.8405h5.49968v-1.2535h-4.12405v-6.587z"/><path d="m16.9007 43.7733c0 2.3428-1.3218 3.5171-3.3739 3.5171-2.0522 0-3.34-1.1771-3.34-3.4492v-4.5158h1.3784v4.4593c0 1.4571.7501 2.2409 1.9842 2.2409s1.9729-.7385 1.9729-2.1844v-4.5158h1.3784z"/><path d="m24.0053 47.3017c-2.287 0-3.9882-1.7826-3.9882-4.0433 0-2.2608 1.67-4.066 4.0448-4.066 1.4464 0 2.321.5037 3.0711 1.2195l-.8859 1.0186c-.6284-.5828-1.2992-.9733-2.1965-.9733-1.5002 0-2.5899 1.2337-2.5899 2.7785 0 1.5449 1.0869 2.8012 2.5899 2.8012.9624 0 1.5794-.3933 2.2531-1.0186l.8859.8969c-.818.8517-1.7153 1.3893-3.1843 1.3893"/><path d="m30.2041 39.3254v7.8405h5.8733v-1.2309h-4.4948v-2.1051h3.9315v-1.2336h-3.9315v-2.0401h4.4382v-1.2308z"/></g><path d="m42.4149 39.6848c-.7953 0-1.3558.5602-1.3558 1.2761 0 .5036.2123.8856.9086 1.6241 1.1209-.3594 1.6927-.897 1.6927-1.6581 0-.7045-.5378-1.2421-1.2426-1.2421m-.719 3.4604c-1.2426.4244-1.7917 1.1544-1.7917 1.9269 0 .962.7614 1.7033 1.837 1.7033.8746 0 1.6247-.4697 2.2757-1.2336zm4.0448 4.1791-1.3558-1.4006c-.7388.863-1.6021 1.3553-2.6579 1.3553-1.3784 0-2.4087-.8856-2.4087-2.1843 0-1.0639.7501-1.8363 2.0295-2.3088-.5945-.6621-.8747-1.1431-.8747-1.8024 0-1.0186.818-1.7911 1.9616-1.7911 1.019 0 1.803.7612 1.803 1.7147s-.7274 1.6241-1.9276 2.04l2.0606 2.1165c.3822-.5376.7162-1.1884 1.019-1.9043l.5265.2123c-.3595.8064-.7388 1.5109-1.1662 2.0824l1.4464 1.4912-.4585.3819z" fill="#ff6900"/><path d="m52.3727 47.3017c-2.4541 0-4.0675-1.7486-4.0675-4.0433s1.6813-4.066 4.0448-4.066c1.3671 0 2.2078.382 3.0145 1.0639l-.8746 1.0413c-.6058-.515-1.2002-.8404-2.1965-.8404-1.4464 0-2.5446 1.2535-2.5446 2.7785 0 1.6241 1.0642 2.8125 2.6663 2.8125.7388 0 1.4124-.2348 1.8936-.5942v-1.4685h-2.0068v-1.1996h3.34v3.2934c-.7727.6621-1.8823 1.2224-3.2721 1.2224" fill="#0bbbef"/><path d="m62.404 40.9156 1.3558 3.135h-2.7003zm-.6171-1.6468-3.4532 7.8971h1.4124l.8067-1.893h3.708l.7954 1.893h1.4577l-3.4504-7.8971z" fill="#0bbbef"/><path d="m72.3306 42.6189c1.6586.4046 2.5219.996 2.5219 2.3089 0 1.4798-1.1548 2.3512-2.8022 2.3512-1.2001 0-2.3323-.4131-3.272-1.2534l.8293-.9847c.7501.6508 1.503 1.0186 2.4767 1.0186.852 0 1.3898-.3933 1.3898-.9959 0-.5716-.3142-.8743-1.7719-1.211-1.67-.4046-2.6097-.897-2.6097-2.3513 0-1.3666 1.1208-2.2862 2.6776-2.2862 1.1435 0 2.0493.348 2.8475.9846l-.7388 1.0413c-.7076-.5263-1.4124-.8064-2.1285-.8064-.8067 0-1.2766.4131-1.2766.9394 0 .6168.3595.8856 1.8597 1.2421" fill="#0bbbef"/></g></svg>