<svg xmlns="http://www.w3.org/2000/svg" viewBox="0 0 640 360" role="img" aria-label="Listino fisso">
  <defs>
    <linearGradient id="g3" x1="0" y1="0" x2="1" y2="1">
      <stop offset="0" stop-color="#00623a"/>
      <stop offset="1" stop-color="#3fa37f"/>
    </linearGradient>
  </defs>
  <rect width="640" height="360" fill="url(#g3)"/>
  <g fill="none" stroke="#ffffff" stroke-opacity="0.16" stroke-width="9">
    <path d="M150 150a210 210 0 0 1 340 0"/>
    <path d="M195 150a150 150 0 0 1 250 0"/>
    <path d="M240 150a90 90 0 0 1 160 0"/>
  </g>
  <g transform="translate(250 120)">
    <path d="M70 0 140 60v120H0V60Z" fill="#ffffff" fill-opacity="0.16"/>
    <path d="M70 0 140 60v120H0V60Z" fill="none" stroke="#ffffff" stroke-opacity="0.5" stroke-width="6"/>
    <rect x="52" y="96" width="36" height="84" rx="4" fill="#ff6900"/>
    <circle cx="70" cy="64" r="10" fill="#ffffff"/>
  </g>
  <circle cx="320" cy="184" r="14" fill="#ffffff"/>
</svg>
