<svg width="120" height="120" viewBox="0 0 120 120" fill="none" xmlns="http://www.w3.org/2000/svg">
<path fill-rule="evenodd" clip-rule="evenodd" d="M23.2454 79.9148H25.148L27.537 87.3395L29.9976 79.8862H31.4854L33.946 87.3395L36.3349 79.9148H38.1804L34.7041 90.0002H33.1734L30.713 82.8045L28.2523 90.0002H26.7359L23.2454 79.9148Z" fill="#97999B"/>
<path fill-rule="evenodd" clip-rule="evenodd" d="M40.3693 89.929H42.1289V79.9149H40.3693V89.929Z" fill="#97999B"/>
<path fill-rule="evenodd" clip-rule="evenodd" d="M45.0901 79.9149H46.7209L52.0855 86.8389V79.9149H53.8163V89.929H52.343L46.8211 82.8046V89.929H45.0901V79.9149Z" fill="#97999B"/>
<path fill-rule="evenodd" clip-rule="evenodd" d="M58.4372 81.5167V88.3261H60.4113C62.5143 88.3261 63.8876 86.9099 63.8876 84.95V84.9214C63.8876 82.9616 62.5143 81.5167 60.4113 81.5167H58.4372ZM56.6776 79.9147H60.4113C63.5586 79.9147 65.733 82.0747 65.733 84.8931V84.9216C65.733 87.7399 63.5586 89.9286 60.4113 89.9286H56.6776V79.9147Z" fill="#97999B"/>
<path fill-rule="evenodd" clip-rule="evenodd" d="M69.753 81.5455H66.5772V79.9147H74.7028V81.5455H71.527V89.9286H69.753V81.5455Z" fill="#97999B"/>
<path fill-rule="evenodd" clip-rule="evenodd" d="M81.1833 84.8787C82.4422 84.8787 83.2433 84.2207 83.2433 83.2051V83.1765C83.2433 82.1035 82.4708 81.517 81.169 81.517H78.6082V84.8787H81.1833ZM76.8487 79.9149H81.312C82.571 79.9149 83.5579 80.2868 84.2017 80.9164C84.7311 81.4599 85.0315 82.2039 85.0315 83.0764V83.105C85.0315 84.7503 84.0443 85.7373 82.6568 86.138L85.3605 89.929H83.2719L80.8114 86.4383H78.6082V89.929H76.8487V79.9149Z" fill="#97999B"/>
<path fill-rule="evenodd" clip-rule="evenodd" d="M87.4777 79.9149H94.9023V81.4886H89.2373V84.0921H94.2586V85.6656H89.2373V88.3552H94.9739V89.929H87.4777V79.9149Z" fill="#97999B"/>
<path fill-rule="evenodd" clip-rule="evenodd" d="M102.298 49.0549C101.924 48.7835 101.484 48.4553 101.287 48.2605C101.393 48.0775 101.582 47.7934 101.751 47.5541C102.735 46.1276 104.581 43.4301 104.581 39.5792C104.581 37.3678 103.773 34.968 101.825 33.1245C99.879 31.2802 96.8006 29.9994 92.2861 30.0002C88.0029 30.0009 83.18 31.4076 79.0128 33.8712C77.1436 34.9796 75.6048 36.1738 74.5271 37.3207C73.4529 38.4674 72.83 39.5642 72.827 40.5084C72.826 40.966 73.0025 41.3869 73.3357 41.7168C73.5997 41.9765 73.952 42.1757 74.3783 42.3303C74.8242 39.4315 85.8241 33.1296 93.8794 34.0527C97.4814 34.4655 100.162 37.1467 99.7898 40.8608C99.4334 44.4138 95.8166 46.3429 92.703 47.2728C90.9654 47.7918 89.2211 48.2955 87.5539 49.0187C86.7355 49.3736 85.9082 49.7771 85.191 50.3123C84.6683 50.7024 83.9912 51.2088 84.0288 51.9403C85.2606 52.7786 87.2163 53.265 88.4882 53.3568C89.5209 53.4315 89.8092 53.4498 90.9686 53.4846C93.3469 53.5563 95.8451 53.6375 98.0657 54.5897C101.182 55.9261 103.016 59.1477 102.345 62.5196C101.482 66.8543 97.1096 69.4774 93.0508 70.229C88.7096 71.033 83.2638 70.4038 80.3967 66.657C79.2252 65.126 78.4867 63.0734 78.8064 61.1374C79.1613 58.9876 80.6721 56.9305 82.8491 56.3802C84.2221 56.033 85.6687 56.3545 86.7592 57.1653C86.4891 56.78 86.1736 56.4286 85.8148 56.1175C84.5538 55.0227 82.7804 54.4075 80.7235 54.4075C78.1845 54.4069 76.1471 55.4609 74.7521 57.0237C73.3565 58.5873 72.5976 60.655 72.5966 62.6926C72.5959 65.8992 74.0761 69.1201 76.9585 71.5344C79.8425 73.9487 84.1275 75.557 89.7372 75.557C94.1847 75.5567 98.6707 74.0883 102.066 71.5382C104.878 69.4197 108.24 65.5584 108.239 59.2242C108.24 53.4283 104.348 50.5634 102.298 49.0549ZM87.5494 61.6012C87.5288 60.997 87.5028 60.7784 87.5028 60.7784C87.471 60.5191 87.422 60.2604 87.3478 60.0098C86.7018 57.8271 84.0993 56.8711 82.2167 58.2081C80.6564 59.3163 80.0433 61.4439 80.6086 63.2361C82.046 67.7915 87.312 68.737 91.4646 68.1112C93.5091 67.8031 95.5204 67.0656 97.1463 65.763C98.7194 64.5026 99.9156 62.5574 99.5262 60.5199C99.2679 57.4649 96.9509 55.9436 93.1732 55.5049C93.3526 55.8732 93.9351 58.5496 92.0335 60.2781C90.8712 61.3344 89.6305 61.6142 87.9604 61.6164C87.8955 61.6164 87.5494 61.6012 87.5494 61.6012ZM18.8422 58.6508C19.0814 58.8357 19.3477 59.0322 19.6017 59.197C20.1063 59.5312 20.6105 59.819 21.1471 60.0972C21.682 60.3779 22.229 60.6367 22.7903 60.8534C22.7903 60.8534 23.5781 61.1774 24.5 61.4135C25.422 61.6493 26.2561 61.7508 26.2561 61.7508C26.8467 61.8311 27.4409 61.8489 28.0338 61.8411C28.0338 61.8411 29.0134 61.8118 29.8031 61.6655C31.7159 61.3496 33.662 59.9187 34.1605 59.5639L34.959 58.997C35.2497 58.796 35.5486 58.6035 35.8619 58.4281C36.4859 58.0758 37.1594 57.78 37.8801 57.5884C38.6014 57.4003 39.2755 57.3283 40.0385 57.4099C40.1339 57.4173 40.711 57.475 41.4284 57.7479C41.4284 57.7479 41.9312 57.9412 42.2091 58.1184C42.5366 58.327 42.8432 58.5525 43.1211 58.7876C44.4794 59.9371 48.4554 64.7338 49.6017 65.7599C50.9556 66.972 52.656 68.2047 54.0339 68.5698C56.6959 69.2753 58.7951 68.6334 61.184 67.1231C63.8221 65.4551 65.96 62.9655 67.7785 60.4621C69.6968 57.8214 71.4253 54.9421 72.5521 51.87C73.1098 50.3495 73.5594 48.6814 73.2593 47.0547C73.2284 46.8872 73.1828 46.7297 73.1262 46.5811C72.7466 47.3887 72.339 48.1845 71.9044 48.9672C71.2053 50.2212 70.4378 51.4436 69.5803 52.6143C68.7216 53.7838 67.777 54.9062 66.6987 55.9298C65.6217 56.9505 64.4057 57.8804 62.9887 58.5635C62.602 58.7454 62.2018 58.9084 61.7885 59.0475C61.3733 59.1827 60.9447 59.2913 60.5063 59.3698C59.6288 59.5211 58.7073 59.5363 57.8117 59.387C56.9139 59.2436 56.0531 58.9385 55.2646 58.5382C54.4797 58.1309 53.7614 57.6333 53.1139 57.0811C53.1139 57.0811 52.7144 56.7298 52.6433 56.6598L52.2176 56.2548C51.9316 55.9841 51.6527 55.7142 51.374 55.4417C50.8177 54.8968 49.8252 53.7832 49.8252 53.7832C49.8252 53.7832 48.1034 51.7705 46.6872 50.2485C46.6872 50.2485 45.3611 48.8086 44.6371 48.1951C42.1591 46.0957 39.1379 46.5572 36.4589 48.0145C33.9786 49.3637 31.7683 51.9515 28.7987 52.1354C26.4859 52.2786 24.3728 51.4097 22.6717 49.872C20.4118 47.8295 18.2449 45.7037 16.4302 43.2176C15.6259 42.1157 13.8195 40.4717 12.0048 41.8862C10.1902 43.3006 11.8898 48.0408 14.5316 53.0011C14.5316 53.0011 16.8993 57.149 18.8422 58.6508ZM85.134 48.7233C86.4253 47.8631 87.8679 47.1941 89.2846 46.5732C91.9936 45.3857 96.1314 44.7977 97.1349 41.7073C98.2019 38.4213 95.2151 36.2864 92.1864 36.1837C83.9914 35.9061 75.8881 41.1215 75.484 42.6138C75.7722 42.6653 76.0781 42.7074 76.4013 42.742C77.7787 42.8864 79.4599 42.8911 81.2682 42.8911H81.5909C84.3788 42.8911 86.348 42.966 87.6075 43.1497C88.2371 43.2416 88.6895 43.3619 88.9696 43.5038C89.2537 43.6508 89.3436 43.7904 89.3454 43.949C89.3451 44.0609 89.2738 44.1618 89.1006 44.3314C88.4987 44.9351 86.9181 45.8304 85.4966 46.8145C84.7844 47.3078 84.1095 47.8257 83.6073 48.3544C83.1072 48.8821 82.7689 49.4234 82.7636 49.9819V50.0084C82.767 50.3947 82.8806 50.739 83.0755 51.044C83.0492 50.7894 83.3821 50.3594 83.5225 50.1671C83.9495 49.582 84.5357 49.1218 85.134 48.7233ZM54.868 55.0722C55.375 55.5297 55.9161 55.9246 56.482 56.2452C57.0501 56.5578 57.644 56.793 58.2583 56.9177C58.8718 57.047 59.5049 57.0669 60.1436 56.9903C60.4626 56.9486 60.7828 56.8855 61.1024 56.8C61.4213 56.7103 61.739 56.6011 62.0544 56.4741C63.2132 55.9939 64.3214 55.2653 65.3492 54.4129C66.3801 53.5599 67.3374 52.5838 68.2347 51.5462C69.132 50.5071 69.9681 49.4019 70.7531 48.257C71.34 47.3981 71.8977 46.5158 72.4236 45.6132C72.0038 45.2878 71.4589 45.1239 70.8402 45.164C69.3728 45.2592 68.1107 46.2301 67.0844 47.2024C65.9883 48.2408 65.017 49.3938 63.8668 50.377C62.7191 51.3581 61.521 52.2888 60.2258 53.0686C58.5194 54.0961 56.5988 54.8299 54.6521 54.8706C54.6614 54.8792 54.868 55.0722 54.868 55.0722ZM39.9812 59.0995C39.4451 59.0701 38.9011 59.1434 38.3684 59.309C37.836 59.4788 37.3168 59.7335 36.8211 60.0457C36.5724 60.2007 36.3308 60.3731 36.0936 60.5539C36.0936 60.5539 34.1947 61.9619 33.5943 62.3196C32.3815 63.0163 31.6388 63.5467 30.2558 63.8678C29.0769 64.1364 28.1495 64.1786 28.1495 64.1786C27.4415 64.2229 26.3267 64.2585 24.9669 64.0589C23.1371 63.7902 21.8922 63.3104 21.8922 63.3104C21.3225 63.1203 20.7672 62.8948 20.2218 62.6492C21.2547 64.1515 22.3888 65.6591 23.7952 66.7516C24.985 67.6761 26.4249 68.2973 27.9342 68.4174C30.4243 68.6157 32.1548 67.4243 33.9985 65.841C35.3167 64.709 36.446 63.3439 37.5846 62.0361C38.3781 61.125 39.1859 59.9259 40.1814 59.1193C40.1146 59.1135 40.0486 59.1004 39.9812 59.0995ZM36.1892 39.1791C36.4604 39.4852 36.8909 39.6293 37.3894 39.7236C37.6374 39.7675 37.9014 39.7929 38.1711 39.8046C38.3016 39.8124 38.4516 39.8186 38.5702 39.8117L38.7567 39.8076L38.9451 39.7922C39.4474 39.7519 39.9594 39.6215 40.4582 39.4467C40.9541 39.2621 41.4441 39.0305 41.8809 38.7401C42.5852 38.2718 42.8199 37.9298 42.9477 37.7415C43.0682 37.5503 43.154 37.3564 43.1878 37.167C43.2226 36.9772 43.2028 36.7816 43.1025 36.5634C43.0153 36.3784 42.8737 36.1855 42.5991 35.9418C41.8297 35.2588 40.5675 35.2053 39.8225 35.2902C38.0957 35.4868 36.6413 36.4972 36.1017 37.5775C35.9659 37.8678 35.8953 38.2215 35.9249 38.5185C35.9526 38.7988 36.0532 39.0237 36.1892 39.1791ZM40.7878 43.7663C43.4403 43.4642 45.3745 41.3218 45.1079 38.9813C45.0369 38.3578 44.8151 37.7843 44.4804 37.2824C44.5146 37.6491 44.4603 38.0093 44.3583 38.3341C44.239 38.7264 44.0431 39.0772 43.817 39.398C43.59 39.7145 43.3337 39.9878 43.0563 40.2345C42.5032 40.728 41.8709 41.1022 41.1919 41.3743C40.5099 41.6365 39.7775 41.8032 39.0173 41.7999C39.0173 41.7999 38.7419 41.8062 38.4843 41.7756C38.233 41.7458 37.9469 41.6893 37.9049 41.6803C37.551 41.6024 37.1945 41.4986 36.845 41.3396C36.6707 41.2596 36.2533 41.0673 35.8467 40.6872C35.7372 40.5849 35.6356 40.4675 35.5432 40.3417C35.9522 42.5397 38.2371 44.0567 40.7878 43.7663Z" fill="#FF6900"/>
</svg>
